<svg width="60" height="53" viewBox="0 0 60 53" fill="none" xmlns="http://www.w3.org/2000/svg">
<g id="dot-box-2 1" clip-path="url(#clip0_328_20838)">
<g id="Clip path group">
<mask id="mask0_328_20838" style="mask-type:luminance" maskUnits="userSpaceOnUse" x="0" y="0" width="60" height="53">
<g id="clip-path">
<path id="Vector" d="M60 0H0V53H60V0Z" fill="white"/>
</g>
</mask>
<g mask="url(#mask0_328_20838)">
<g id="Repeat Grid 2" opacity="0.7">
<g id="Group">
<g id="Ellipse 335">
<path id="Vector_2" d="M2.64671 4.24125C3.78377 4.24125 4.70554 3.41074 4.70554 2.38625C4.70554 1.36176 3.78377 0.53125 2.64671 0.53125C1.50966 0.53125 0.587891 1.36176 0.587891 2.38625C0.587891 3.41074 1.50966 4.24125 2.64671 4.24125Z" stroke="#8E66FF"/>
</g>
</g>
<g id="Group_2">
<g id="Ellipse 335_2">
<path id="Vector_3" d="M15.5879 4.24125C16.7249 4.24125 17.6467 3.41074 17.6467 2.38625C17.6467 1.36176 16.7249 0.53125 15.5879 0.53125C14.4508 0.53125 13.5291 1.36176 13.5291 2.38625C13.5291 3.41074 14.4508 4.24125 15.5879 4.24125Z" stroke="#8E66FF"/>
</g>
</g>
<g id="Group_3">
<g id="Ellipse 335_3">
<path id="Vector_4" d="M28.5295 4.24125C29.6666 4.24125 30.5884 3.41074 30.5884 2.38625C30.5884 1.36176 29.6666 0.53125 28.5295 0.53125C27.3925 0.53125 26.4707 1.36176 26.4707 2.38625C26.4707 3.41074 27.3925 4.24125 28.5295 4.24125Z" stroke="#8E66FF"/>
</g>
</g>
<g id="Group_4">
<g id="Ellipse 335_4">
<path id="Vector_5" d="M41.47 4.24125C42.607 4.24125 43.5288 3.41074 43.5288 2.38625C43.5288 1.36176 42.607 0.53125 41.47 0.53125C40.3329 0.53125 39.4111 1.36176 39.4111 2.38625C39.4111 3.41074 40.3329 4.24125 41.47 4.24125Z" stroke="#8E66FF"/>
</g>
</g>
<g id="Group_5">
<g id="Ellipse 335_5">
<path id="Vector_6" d="M54.4114 4.24125C55.5485 4.24125 56.4702 3.41074 56.4702 2.38625C56.4702 1.36176 55.5485 0.53125 54.4114 0.53125C53.2744 0.53125 52.3526 1.36176 52.3526 2.38625C52.3526 3.41074 53.2744 4.24125 54.4114 4.24125Z" stroke="#8E66FF"/>
</g>
</g>
<g id="Group_6">
<g id="Ellipse 335_6">
<path id="Vector_7" d="M2.64671 15.8975C3.78377 15.8975 4.70554 15.067 4.70554 14.0425C4.70554 13.018 3.78377 12.1875 2.64671 12.1875C1.50966 12.1875 0.587891 13.018 0.587891 14.0425C0.587891 15.067 1.50966 15.8975 2.64671 15.8975Z" stroke="#8E66FF"/>
</g>
</g>
<g id="Group_7">
<g id="Ellipse 335_7">
<path id="Vector_8" d="M15.5879 15.8975C16.7249 15.8975 17.6467 15.067 17.6467 14.0425C17.6467 13.018 16.7249 12.1875 15.5879 12.1875C14.4508 12.1875 13.5291 13.018 13.5291 14.0425C13.5291 15.067 14.4508 15.8975 15.5879 15.8975Z" stroke="#8E66FF"/>
</g>
</g>
<g id="Group_8">
<g id="Ellipse 335_8">
<path id="Vector_9" d="M28.5295 15.8975C29.6666 15.8975 30.5884 15.067 30.5884 14.0425C30.5884 13.018 29.6666 12.1875 28.5295 12.1875C27.3925 12.1875 26.4707 13.018 26.4707 14.0425C26.4707 15.067 27.3925 15.8975 28.5295 15.8975Z" stroke="#8E66FF"/>
</g>
</g>
<g id="Group_9">
<g id="Ellipse 335_9">
<path id="Vector_10" d="M41.47 15.8975C42.607 15.8975 43.5288 15.067 43.5288 14.0425C43.5288 13.018 42.607 12.1875 41.47 12.1875C40.3329 12.1875 39.4111 13.018 39.4111 14.0425C39.4111 15.067 40.3329 15.8975 41.47 15.8975Z" stroke="#8E66FF"/>
</g>
</g>
<g id="Group_10">
<g id="Ellipse 335_10">
<path id="Vector_11" d="M54.4114 15.8975C55.5485 15.8975 56.4702 15.067 56.4702 14.0425C56.4702 13.018 55.5485 12.1875 54.4114 12.1875C53.2744 12.1875 52.3526 13.018 52.3526 14.0425C52.3526 15.067 53.2744 15.8975 54.4114 15.8975Z" stroke="#8E66FF"/>
</g>
</g>
<g id="Group_11">
<g id="Ellipse 335_11">
<path id="Vector_12" d="M2.64671 27.5616C3.78377 27.5616 4.70554 26.7311 4.70554 25.7066C4.70554 24.6821 3.78377 23.8516 2.64671 23.8516C1.50966 23.8516 0.587891 24.6821 0.587891 25.7066C0.587891 26.7311 1.50966 27.5616 2.64671 27.5616Z" stroke="#8E66FF"/>
</g>
</g>
<g id="Group_12">
<g id="Ellipse 335_12">
<path id="Vector_13" d="M15.5879 27.5616C16.7249 27.5616 17.6467 26.7311 17.6467 25.7066C17.6467 24.6821 16.7249 23.8516 15.5879 23.8516C14.4508 23.8516 13.5291 24.6821 13.5291 25.7066C13.5291 26.7311 14.4508 27.5616 15.5879 27.5616Z" stroke="#8E66FF"/>
</g>
</g>
<g id="Group_13">
<g id="Ellipse 335_13">
<path id="Vector_14" d="M28.5295 27.5616C29.6666 27.5616 30.5884 26.7311 30.5884 25.7066C30.5884 24.6821 29.6666 23.8516 28.5295 23.8516C27.3925 23.8516 26.4707 24.6821 26.4707 25.7066C26.4707 26.7311 27.3925 27.5616 28.5295 27.5616Z" stroke="#8E66FF"/>
</g>
</g>
<g id="Group_14">
<g id="Ellipse 335_14">
<path id="Vector_15" d="M41.47 27.5616C42.607 27.5616 43.5288 26.7311 43.5288 25.7066C43.5288 24.6821 42.607 23.8516 41.47 23.8516C40.3329 23.8516 39.4111 24.6821 39.4111 25.7066C39.4111 26.7311 40.3329 27.5616 41.47 27.5616Z" stroke="#8E66FF"/>
</g>
</g>
<g id="Group_15">
<g id="Ellipse 335_15">
<path id="Vector_16" d="M54.4114 27.5616C55.5485 27.5616 56.4702 26.7311 56.4702 25.7066C56.4702 24.6821 55.5485 23.8516 54.4114 23.8516C53.2744 23.8516 52.3526 24.6821 52.3526 25.7066C52.3526 26.7311 53.2744 27.5616 54.4114 27.5616Z" stroke="#8E66FF"/>
</g>
</g>
<g id="Group_16">
<g id="Ellipse 335_16">
<path id="Vector_17" d="M2.64671 39.2178C3.78377 39.2178 4.70554 38.3873 4.70554 37.3628C4.70554 36.3383 3.78377 35.5078 2.64671 35.5078C1.50966 35.5078 0.587891 36.3383 0.587891 37.3628C0.587891 38.3873 1.50966 39.2178 2.64671 39.2178Z" stroke="#8E66FF"/>
</g>
</g>
<g id="Group_17">
<g id="Ellipse 335_17">
<path id="Vector_18" d="M15.5879 39.2178C16.7249 39.2178 17.6467 38.3873 17.6467 37.3628C17.6467 36.3383 16.7249 35.5078 15.5879 35.5078C14.4508 35.5078 13.5291 36.3383 13.5291 37.3628C13.5291 38.3873 14.4508 39.2178 15.5879 39.2178Z" stroke="#8E66FF"/>
</g>
</g>
<g id="Group_18">
<g id="Ellipse 335_18">
<path id="Vector_19" d="M28.5295 39.2178C29.6666 39.2178 30.5884 38.3873 30.5884 37.3628C30.5884 36.3383 29.6666 35.5078 28.5295 35.5078C27.3925 35.5078 26.4707 36.3383 26.4707 37.3628C26.4707 38.3873 27.3925 39.2178 28.5295 39.2178Z" stroke="#8E66FF"/>
</g>
</g>
<g id="Group_19">
<g id="Ellipse 335_19">
<path id="Vector_20" d="M41.47 39.2178C42.607 39.2178 43.5288 38.3873 43.5288 37.3628C43.5288 36.3383 42.607 35.5078 41.47 35.5078C40.3329 35.5078 39.4111 36.3383 39.4111 37.3628C39.4111 38.3873 40.3329 39.2178 41.47 39.2178Z" stroke="#8E66FF"/>
</g>
</g>
<g id="Group_20">
<g id="Ellipse 335_20">
<path id="Vector_21" d="M54.4114 39.2178C55.5485 39.2178 56.4702 38.3873 56.4702 37.3628C56.4702 36.3383 55.5485 35.5078 54.4114 35.5078C53.2744 35.5078 52.3526 36.3383 52.3526 37.3628C52.3526 38.3873 53.2744 39.2178 54.4114 39.2178Z" stroke="#8E66FF"/>
</g>
</g>
<g id="Group_21">
<g id="Ellipse 335_21">
<path id="Vector_22" d="M2.64671 50.8819C3.78377 50.8819 4.70554 50.0514 4.70554 49.0269C4.70554 48.0024 3.78377 47.1719 2.64671 47.1719C1.50966 47.1719 0.587891 48.0024 0.587891 49.0269C0.587891 50.0514 1.50966 50.8819 2.64671 50.8819Z" stroke="#8E66FF"/>
</g>
</g>
<g id="Group_22">
<g id="Ellipse 335_22">
<path id="Vector_23" d="M15.5879 50.8819C16.7249 50.8819 17.6467 50.0514 17.6467 49.0269C17.6467 48.0024 16.7249 47.1719 15.5879 47.1719C14.4508 47.1719 13.5291 48.0024 13.5291 49.0269C13.5291 50.0514 14.4508 50.8819 15.5879 50.8819Z" stroke="#8E66FF"/>
</g>
</g>
<g id="Group_23">
<g id="Ellipse 335_23">
<path id="Vector_24" d="M28.5295 50.8819C29.6666 50.8819 30.5884 50.0514 30.5884 49.0269C30.5884 48.0024 29.6666 47.1719 28.5295 47.1719C27.3925 47.1719 26.4707 48.0024 26.4707 49.0269C26.4707 50.0514 27.3925 50.8819 28.5295 50.8819Z" stroke="#8E66FF"/>
</g>
</g>
<g id="Group_24">
<g id="Ellipse 335_24">
<path id="Vector_25" d="M41.47 50.8819C42.607 50.8819 43.5288 50.0514 43.5288 49.0269C43.5288 48.0024 42.607 47.1719 41.47 47.1719C40.3329 47.1719 39.4111 48.0024 39.4111 49.0269C39.4111 50.0514 40.3329 50.8819 41.47 50.8819Z" stroke="#8E66FF"/>
</g>
</g>
<g id="Group_25">
<g id="Ellipse 335_25">
<path id="Vector_26" d="M54.4114 50.8819C55.5485 50.8819 56.4702 50.0514 56.4702 49.0269C56.4702 48.0024 55.5485 47.1719 54.4114 47.1719C53.2744 47.1719 52.3526 48.0024 52.3526 49.0269C52.3526 50.0514 53.2744 50.8819 54.4114 50.8819Z" stroke="#8E66FF"/>
</g>
</g>
</g>
</g>
</g>
</g>
<defs>
<clipPath id="clip0_328_20838">
<rect width="60" height="53" fill="white"/>
</clipPath>
</defs>
</svg>
