<svg width="85" height="43" viewBox="0 0 85 43" fill="none" xmlns="http://www.w3.org/2000/svg">
<g id="dot-box-1 1" clip-path="url(#clip0_328_20825)">
<g id="Clip path group">
<mask id="mask0_328_20825" style="mask-type:luminance" maskUnits="userSpaceOnUse" x="0" y="0" width="85" height="43">
<g id="clip-path">
<path id="Vector" d="M85 0H0V43H85V0Z" fill="white"/>
</g>
</mask>
<g mask="url(#mask0_328_20825)">
<g id="Repeat Grid 1" opacity="0.7">
<g id="Group">
<path id="Path 12231" d="M0.201172 5.98748C0.201172 5.98748 8.99313 0.147429 18.5841 5.98748C28.1751 11.8275 28.9754 -2.47046 37.1671 1.96017C45.3589 6.39081 45.5591 10.619 53.1527 4.77973C60.7463 -1.05958 61.9448 0.752393 69.3383 5.9882C76.7319 11.224 84.7241 1.96089 84.7241 1.96089" stroke="#2878EB" stroke-width="1.5" stroke-linecap="round"/>
</g>
<g id="Group_2">
<path id="Path 12231_2" d="M0.201172 17.0265C0.201172 17.0265 8.99313 11.1865 18.5841 17.0265C28.1751 22.8666 28.9754 8.5686 37.1671 12.9992C45.3589 17.4299 45.5591 21.6581 53.1527 15.8188C60.7463 9.97948 61.9448 11.7915 69.3383 17.0273C76.7319 22.2631 84.7241 13 84.7241 13" stroke="#2878EB" stroke-width="1.5" stroke-linecap="round"/>
</g>
<g id="Group_3">
<path id="Path 12231_3" d="M0.201172 28.0656C0.201172 28.0656 8.99313 22.2256 18.5841 28.0656C28.1751 33.9057 28.9754 19.6077 37.1671 24.0383C45.3589 28.4689 45.5591 32.6972 53.1527 26.8579C60.7463 21.0185 61.9448 22.8305 69.3383 28.0663C76.7319 33.3021 84.7241 24.039 84.7241 24.039" stroke="#2878EB" stroke-width="1.5" stroke-linecap="round"/>
</g>
<g id="Group_4">
<path id="Path 12231_4" d="M0.201172 39.1047C0.201172 39.1047 8.99313 33.2646 18.5841 39.1047C28.1751 44.9447 28.9754 30.6467 37.1671 35.0774C45.3589 39.508 45.5591 43.7362 53.1527 37.8969C60.7463 32.0576 61.9448 33.8696 69.3383 39.1054C76.7319 44.3412 84.7241 35.0781 84.7241 35.0781" stroke="#2878EB" stroke-width="1.5" stroke-linecap="round"/>
</g>
</g>
</g>
</g>
</g>
<defs>
<clipPath id="clip0_328_20825">
<rect width="85" height="43" fill="white"/>
</clipPath>
</defs>
</svg>
