<svg width="197" height="104" viewBox="0 0 197 104" fill="none" xmlns="http://www.w3.org/2000/svg">
<g id="Chose-img 1" clip-path="url(#clip0_328_20812)">
<g id="Group 3060">
<g id="Group 3054">
<path id="Path 11733" d="M141.705 39.8438L155.068 42.4907" stroke="#F6821F" stroke-width="2" stroke-miterlimit="10" stroke-linecap="round"/>
<path id="Path 11734" d="M155.44 42.3462L185.307 28.9453L162.078 46.3261" stroke="#F6821F" stroke-width="2" stroke-miterlimit="10" stroke-linecap="round"/>
<path id="Path 11735" d="M141.222 38.4941C159.008 33.0117 176.896 27.8757 194.888 23.0859" stroke="#F6821F" stroke-width="2" stroke-miterlimit="10" stroke-linecap="round"/>
<path id="Path 11736" d="M162.054 46.765C167.102 46.5996 172.152 46.6102 177.204 46.7968" stroke="#F6821F" stroke-width="2" stroke-miterlimit="10" stroke-linecap="round"/>
<path id="Path 11737" d="M196.013 23.1875C189.677 31.8904 182.848 40.2233 175.558 48.1452" stroke="#F6821F" stroke-width="2" stroke-miterlimit="10" stroke-linecap="round"/>
<path id="Path 11738" d="M154.097 43.4297C154.546 48.0464 154.717 52.6859 154.609 57.3232" stroke="#F6821F" stroke-width="2" stroke-miterlimit="10" stroke-linecap="round"/>
<path id="Path 11739" d="M161.434 46.3828C159.332 50.0991 157.231 53.8157 155.129 57.5325" stroke="#F6821F" stroke-width="2" stroke-miterlimit="10" stroke-linecap="round"/>
<path id="Path 11740" d="M155.421 57.4915C159.44 53.7045 163.619 50.0979 167.959 46.6719" stroke="#F6821F" stroke-width="2" stroke-miterlimit="10" stroke-linecap="round"/>
</g>
<path id="Path 12168" d="M147.901 50.2488C140.995 56.7033 142.297 65.283 140.813 73.0889C138.46 85.467 126.877 97.7341 108.774 101.827C94.315 105.095 77.5986 102.625 65.4506 96.5637C53.3025 90.5022 45.5113 81.2262 42.1825 71.5C40.7684 67.3646 40.103 63.0694 41.1148 58.8837C43.4177 49.3554 54.3009 41.4089 67.2104 36.6727C70.1685 35.4761 73.3022 34.7704 76.4878 34.5834C79.7898 34.4929 83.3428 35.4315 84.8658 37.3434C86.6243 39.5465 85.1437 42.3906 82.3409 44.0749C79.5381 45.7592 75.7235 46.5155 71.9965 47.0435C51.8643 49.9025 29.14 47.0824 14.4833 37.6551C-0.173449 28.2279 -4.2723 11.7963 7.94505 1" stroke="#F6821F" stroke-width="2" stroke-miterlimit="10" stroke-linecap="round" stroke-dasharray="9.74 9.74"/>
</g>
</g>
<defs>
<clipPath id="clip0_328_20812">
<rect width="197" height="104" fill="white" transform="matrix(-1 0 0 1 197 0)"/>
</clipPath>
</defs>
</svg>
