<svg width="197" height="104" viewBox="0 0 197 104" fill="none" xmlns="http://www.w3.org/2000/svg">
<g id="Chose-img 2" clip-path="url(#clip0_328_25588)">
<g id="Group 3060">
<g id="Group 3054">
<path id="Path 11733" d="M55.2951 39.8438L41.9316 42.4907" stroke="#F6821F" stroke-width="2" stroke-miterlimit="10" stroke-linecap="round"/>
<path id="Path 11734" d="M41.5597 42.3462L11.6934 28.9453L34.9218 46.3261" stroke="#F6821F" stroke-width="2" stroke-miterlimit="10" stroke-linecap="round"/>
<path id="Path 11735" d="M55.7783 38.4941C37.9924 33.0117 20.1037 27.8757 2.11218 23.0859" stroke="#F6821F" stroke-width="2" stroke-miterlimit="10" stroke-linecap="round"/>
<path id="Path 11736" d="M34.9461 46.765C29.8977 46.5996 24.8476 46.6102 19.7959 46.7968" stroke="#F6821F" stroke-width="2" stroke-miterlimit="10" stroke-linecap="round"/>
<path id="Path 11737" d="M0.987305 23.1875C7.32305 31.8904 14.1524 40.2233 21.4419 48.1452" stroke="#F6821F" stroke-width="2" stroke-miterlimit="10" stroke-linecap="round"/>
<path id="Path 11738" d="M42.9034 43.4297C42.4538 48.0464 42.2826 52.6859 42.3908 57.3232" stroke="#F6821F" stroke-width="2" stroke-miterlimit="10" stroke-linecap="round"/>
<path id="Path 11739" d="M35.5663 46.3828C37.6677 50.0991 39.7693 53.8157 41.8712 57.5325" stroke="#F6821F" stroke-width="2" stroke-miterlimit="10" stroke-linecap="round"/>
<path id="Path 11740" d="M41.5787 57.4915C37.5597 53.7045 33.3805 50.0979 29.041 46.6719" stroke="#F6821F" stroke-width="2" stroke-miterlimit="10" stroke-linecap="round"/>
</g>
<path id="Path 12168" d="M49.0988 50.2488C56.0046 56.7033 54.7029 65.283 56.1871 73.0889C58.5402 85.467 70.1233 97.7341 88.2255 101.827C102.685 105.095 119.401 102.625 131.549 96.5637C143.698 90.5022 151.489 81.2262 154.818 71.5C156.232 67.3646 156.897 63.0694 155.885 58.8837C153.582 49.3554 142.699 41.4089 129.79 36.6727C126.831 35.4761 123.698 34.7704 120.512 34.5834C117.21 34.4929 113.657 35.4315 112.134 37.3434C110.376 39.5465 111.856 42.3906 114.659 44.0749C117.462 45.7592 121.277 46.5155 125.003 47.0435C145.136 49.9025 167.86 47.0824 182.517 37.6551C197.173 28.2279 201.272 11.7963 189.055 1" stroke="#F6821F" stroke-width="2" stroke-miterlimit="10" stroke-linecap="round" stroke-dasharray="9.74 9.74"/>
</g>
</g>
<defs>
<clipPath id="clip0_328_25588">
<rect width="197" height="104" fill="white"/>
</clipPath>
</defs>
</svg>
