<svg width="22" height="22" viewBox="0 0 22 22" fill="none" xmlns="http://www.w3.org/2000/svg">
<g id="fi_12604090">
<g id="Group">
<g id="Group 3105">
<path id="Vector" fill-rule="evenodd" clip-rule="evenodd" d="M11.1513 17.2432C10.9496 17.0154 10.9496 16.6461 11.1513 16.4183L15.9547 10.9974L11.1513 5.57659C10.9496 5.34874 10.9496 4.97938 11.1513 4.75153C11.3532 4.5238 11.6805 4.5238 11.8824 4.75153L17.4167 10.9974L11.8824 17.2432C11.6805 17.471 11.3532 17.471 11.1513 17.2432Z" fill="white"/>
<path id="Vector_2" fill-rule="evenodd" clip-rule="evenodd" d="M3.83904 17.2432C3.60834 17.0154 3.60834 16.6461 3.83904 16.4183L9.32855 10.9974L3.83904 5.57659C3.60834 5.34874 3.60834 4.97938 3.83904 4.75153C4.06973 4.5238 4.44375 4.5238 4.67444 4.75153L10.9993 10.9974L4.67444 17.2432C4.44375 17.471 4.06973 17.471 3.83904 17.2432Z" fill="white"/>
</g>
</g>
</g>
</svg>
