<svg width="349" height="178" viewBox="0 0 349 178" fill="none" xmlns="http://www.w3.org/2000/svg">
<g clip-path="url(#clip0_3122_1339)">
<path d="M1.21185 180.372C3.05943 177.798 5.04753 175.316 7.22339 173.019C11.714 168.284 16.7683 164.151 22.2463 160.621C27.7707 157.044 33.7188 154.069 39.8572 151.652C46.0415 149.142 52.5095 147.188 59.0273 145.7C65.9637 144.069 72.9972 142.997 80.0795 142.25C88.5133 141.401 96.95 140.971 105.435 140.727C113.919 140.483 122.358 140.379 130.843 140.181C139.327 139.937 147.765 139.6 156.199 138.798C162.66 138.164 169.089 137.266 175.484 136.105C181.694 134.945 187.854 133.521 193.967 131.834C200.141 130.146 206.22 128.211 212.205 126.028C218.19 123.845 224.079 121.429 229.874 118.782C235.669 116.134 241.354 113.27 246.928 110.189C252.502 107.077 257.951 103.749 263.273 100.204C268.565 96.6909 273.715 92.9765 278.724 89.0613C283.764 85.1458 288.632 81.0297 293.328 76.713C298.023 72.3963 302.547 67.9099 306.898 63.254C311.249 58.5981 315.398 53.7883 319.343 48.8246C323.288 43.8299 327.03 38.6969 330.568 33.4255C334.107 28.1231 337.412 22.698 340.483 17.1504C343.553 11.5407 346.389 5.82388 348.992 -1.26362e-05L350.204 177.996L1.21185 180.372Z" fill="url(#paint0_linear_3122_1339)"/>
<path d="M410.703 72.2071L411.225 72.4921C394.603 106.251 364.119 129.831 331.657 134.034C318.28 135.741 304.593 134.334 291.367 132.923C285.13 132.273 278.662 131.567 272.311 131.264C231.091 129.063 189.794 141.059 156.139 165.065C148.271 170.659 140.753 176.943 133.466 183.052C123.94 191.081 114.013 199.344 103.325 206.111C93.1535 212.528 82.4504 217.103 72.2506 219.307C60.38 221.928 49.3543 221.483 39.4618 217.972L39.6314 217.452C50.391 221.188 72.8642 224.67 102.975 205.652C113.663 198.884 123.533 190.622 133.117 182.651C140.404 176.484 147.921 170.2 155.789 164.548C189.56 140.542 230.972 128.487 272.365 130.686C278.716 131.047 285.184 131.696 291.421 132.346C304.589 133.757 318.276 135.164 331.595 133.457C363.827 129.256 394.138 105.792 410.703 72.2071Z" fill="url(#paint1_linear_3122_1339)"/>
<path d="M411.098 70.8229L411.619 71.0502C398.072 98.7281 374.153 120.244 347.663 128.561C342.999 130.094 338.159 131.165 333.373 131.833C320.112 133.597 306.541 132.304 293.374 131.066C287.368 130.472 281.132 129.88 274.954 129.576C270.105 129.378 265.084 129.355 260.18 129.503C224.35 130.728 188.938 142.512 160.509 162.731C152.239 168.616 144.32 175.306 136.689 181.764C127.795 189.327 118.615 197.181 108.79 203.653C98.9663 210.184 88.6683 214.929 78.9322 217.419C67.6984 220.323 57.2524 220.279 47.8833 217.342L48.0525 216.763C58.1738 219.984 79.3703 222.437 108.441 203.194C118.265 196.721 127.446 188.926 136.34 181.363C143.971 174.847 151.889 168.157 160.16 162.271C188.704 141.994 224.231 130.152 260.176 128.926C265.081 128.777 270.102 128.801 275.008 128.998C281.185 129.303 287.422 129.895 293.428 130.489C306.537 131.727 320.108 133.02 333.311 131.256C338.039 130.589 342.822 129.518 347.544 128.043C373.861 119.727 397.608 98.3273 411.098 70.8229Z" fill="url(#paint2_linear_3122_1339)"/>
<path d="M411.5 69.3675L412.021 69.5948C398.817 96.751 375.3 117.975 349.156 126.348C344.549 127.823 339.767 128.894 335.097 129.56C321.952 131.497 308.439 130.319 295.447 129.196C289.615 128.716 283.551 128.18 277.663 127.932C272.814 127.734 267.909 127.709 263.062 127.916C227.521 129.196 192.627 140.745 164.887 160.383C156.099 166.56 147.837 173.714 139.862 180.579C131.658 187.675 123.167 195.005 114.206 201.241C86.0614 220.823 65.9098 219.287 56.3696 216.639L56.4811 216.061C65.9636 218.709 85.9416 220.189 113.914 200.723C122.817 194.545 131.309 187.216 139.456 180.177C147.488 173.255 155.75 166.1 164.537 159.923C192.393 140.227 227.345 128.678 263.058 127.339C267.905 127.132 272.81 127.157 277.659 127.355C283.605 127.603 289.668 128.138 295.501 128.618C308.493 129.742 321.89 130.92 334.978 129.042C339.705 128.317 344.372 127.247 348.979 125.773C375.008 117.458 398.352 96.3502 411.5 69.3675Z" fill="url(#paint3_linear_3122_1339)"/>
<path d="M411.891 67.928L412.355 68.2134C399.551 94.7898 376.436 115.723 350.581 124.094C346.032 125.568 341.423 126.696 336.753 127.362C323.724 129.355 310.386 128.35 297.452 127.341C291.851 126.918 286.019 126.496 280.304 126.304C275.571 126.105 270.723 126.138 265.935 126.344C230.625 127.738 196.249 138.995 169.254 158.05C160.007 164.577 151.345 172.196 142.969 179.525C135.454 186.097 127.709 192.902 119.67 198.786C108.07 207.29 85.5396 220.833 64.7882 215.953L64.8997 215.375C85.4199 220.199 107.836 206.772 119.32 198.326C127.36 192.443 135.104 185.638 142.562 179.066C150.938 171.737 159.6 164.118 168.905 157.591C196.014 138.477 230.506 127.162 265.931 125.767C270.719 125.561 275.567 125.528 280.301 125.727C286.015 125.919 291.847 126.341 297.505 126.764C310.382 127.773 323.72 128.778 336.691 126.786C341.303 126.119 345.913 124.991 350.404 123.576C376.086 115.206 399.087 94.4467 411.891 67.928Z" fill="url(#paint4_linear_3122_1339)"/>
<path d="M412.226 66.5473L412.747 66.7746C400.286 92.8869 377.573 113.471 352.065 121.897C347.573 123.313 343.021 124.441 338.467 125.164C325.554 127.214 312.274 126.324 299.457 125.487C294.03 125.12 288.429 124.755 282.946 124.619C278.27 124.477 273.539 124.567 268.865 124.772C233.211 126.285 200.273 137.012 173.623 155.719C163.801 162.596 154.738 170.737 145.962 178.587C139.193 184.635 132.252 190.858 125.134 196.331C113.996 204.948 92.4493 218.83 73.2074 215.267L73.3189 214.69C92.3296 218.196 113.704 204.431 124.784 195.872C131.903 190.398 138.844 184.176 145.555 178.186C154.331 170.278 163.452 162.136 173.273 155.26C200.039 136.494 233.091 125.708 268.804 124.196C273.535 123.99 278.266 123.9 282.942 124.042C288.483 124.177 294.083 124.543 299.453 124.91C312.271 125.746 325.492 126.637 338.348 124.588C342.902 123.864 347.454 122.794 351.888 121.322C377.223 112.954 399.822 92.4861 412.226 66.5473Z" fill="url(#paint5_linear_3122_1339)"/>
<path d="M412.63 65.1012L413.151 65.3862C401.032 90.9191 378.721 111.212 353.501 119.636C349.125 121.109 344.631 122.236 340.193 122.959C327.338 125.124 314.174 124.348 301.416 123.684C296.22 123.374 290.851 123.064 285.598 122.984C280.981 122.9 276.307 122.932 271.749 123.136C236.326 124.82 203.906 135.256 177.944 153.38C167.548 160.665 158.027 169.386 148.851 177.817C142.944 183.224 136.807 188.806 130.608 193.869C119.933 202.541 99.4277 216.82 81.6952 214.574L81.749 213.997C99.2507 216.244 119.642 202.081 130.259 193.41C136.4 188.405 142.537 182.823 148.444 177.358C157.678 168.927 167.199 160.206 177.652 152.921C203.672 134.738 236.207 124.244 271.687 122.56C276.303 122.355 280.977 122.323 285.594 122.407C290.904 122.486 296.274 122.796 301.412 123.107C314.171 123.771 327.334 124.547 340.073 122.382C344.512 121.66 349.006 120.533 353.324 119.06C378.371 110.695 400.568 90.5183 412.63 65.1012Z" fill="url(#paint6_linear_3122_1339)"/>
<path d="M413.016 63.7044L413.537 63.9317C401.761 88.9429 379.852 108.944 354.921 117.367C350.66 118.839 346.282 119.965 341.843 120.745C329.104 122.967 316 122.364 303.3 121.816C298.393 121.561 293.255 121.365 288.234 121.284C283.732 121.256 279.116 121.346 274.616 121.549C239.424 123.347 207.522 133.548 182.307 151.091C171.279 158.784 161.243 168.144 151.609 177.212C146.563 181.979 141.287 186.92 136.066 191.399C125.853 200.183 106.331 214.801 90.1087 213.931L90.1625 213.353C101.997 213.965 118.16 206.064 135.659 190.998C140.88 186.461 146.156 181.577 151.203 176.811C160.893 167.684 170.871 158.325 182.015 150.573C207.287 132.973 239.305 122.771 274.612 120.972C279.112 120.769 283.728 120.679 288.287 120.706C293.309 120.787 298.389 121.041 303.354 121.238C315.996 121.787 329.1 122.39 341.782 120.169C346.105 119.389 350.483 118.263 354.744 116.849C379.502 108.427 401.297 88.542 413.016 63.7044Z" fill="url(#paint7_linear_3122_1339)"/>
<path d="M413.409 62.2563L413.93 62.4836C402.497 86.9731 380.99 106.683 356.405 115.161C352.202 116.575 347.882 117.758 343.559 118.538C330.878 120.875 317.832 120.387 305.191 119.954C300.515 119.812 295.666 119.672 290.934 119.647C286.432 119.62 281.932 119.708 277.49 119.969C242.53 121.823 211.145 131.79 186.676 148.75C174.843 156.91 164.408 167.023 154.261 176.845C150.075 180.913 145.776 185.098 141.531 188.993C131.781 197.832 113.242 212.79 98.5866 213.236L98.5827 212.658C113.007 212.214 131.431 197.372 141.124 188.534C145.368 184.639 149.668 180.454 153.854 176.444C164.002 166.622 174.494 156.451 186.384 148.233C210.853 131.272 242.411 121.304 277.486 119.392C281.928 119.131 286.428 119.042 290.93 119.07C295.663 119.095 300.569 119.235 305.244 119.376C317.828 119.81 330.874 120.298 343.439 117.962C347.762 117.182 352.025 116.057 356.228 114.585C380.64 106.166 402.033 86.5723 413.409 62.2563Z" fill="url(#paint8_linear_3122_1339)"/>
<path d="M413.803 60.8811L414.324 61.1084C403.175 85.0188 382.069 104.38 357.831 112.913C353.744 114.384 349.481 115.509 345.274 116.346C332.651 118.74 319.665 118.482 307.082 118.164C302.637 118.079 298.078 117.995 293.576 117.968C289.133 117.998 284.747 118.143 280.421 118.403C245.635 120.372 214.71 130.104 191.045 146.424C178.407 155.109 167.402 166.149 156.741 176.841C153.531 180.037 150.206 183.349 146.938 186.545C126.413 206.364 113.926 211.643 107.064 212.556L106.945 211.979C113.748 211.067 126.121 205.847 146.531 186.086C149.799 182.948 153.124 179.635 156.334 176.382C166.995 165.748 178.001 154.708 190.695 145.965C214.476 129.529 245.458 119.796 280.359 117.827C284.686 117.566 289.129 117.421 293.572 117.39C298.074 117.418 302.633 117.502 307.078 117.587C319.603 117.906 332.59 118.164 345.154 115.77C349.362 114.933 353.567 113.808 357.655 112.395C381.778 103.92 402.769 84.6753 413.803 60.8811Z" fill="url(#paint9_linear_3122_1339)"/>
<path d="M414.137 59.4248L414.658 59.652C403.91 83.0403 383.206 102.11 359.314 110.641C355.285 112.111 351.079 113.236 346.93 114.073C334.424 116.639 321.438 116.497 308.856 116.352C304.701 116.322 300.43 116.294 296.217 116.322C291.889 116.352 287.505 116.555 283.294 116.814C248.22 118.958 218.619 128.104 195.413 144.075C181.799 153.401 170.223 165.484 159.107 177.16C156.872 179.425 154.637 181.807 152.402 184.073C141.628 195.169 126.429 209.007 115.483 211.852L115.364 211.276C126.136 208.432 141.221 194.71 151.995 183.672C154.231 181.406 156.465 179.024 158.643 176.759C169.816 165.025 181.392 152.942 195.063 143.616C218.385 127.586 248.043 118.382 283.232 116.238C287.501 115.978 291.885 115.775 296.214 115.745C300.426 115.717 304.697 115.745 308.852 115.775C321.377 115.92 334.363 116.063 346.811 113.554C350.96 112.718 355.108 111.535 359.08 110.123C382.915 101.651 403.446 82.6972 414.137 59.4248Z" fill="url(#paint10_linear_3122_1339)"/>
<path d="M414.534 57.9762L415.055 58.2612C404.649 81.0701 384.348 99.8489 360.745 108.435C356.772 109.847 352.741 111.029 348.649 111.865C336.144 114.547 323.159 114.578 310.578 114.548C306.712 114.574 302.788 114.601 298.864 114.685C294.594 114.772 290.324 114.917 286.171 115.176C251.272 117.491 222.188 126.403 199.786 141.734C185.023 151.818 172.878 165.117 161.193 177.95C160.085 179.189 158.978 180.408 157.87 181.609C142.919 197.985 131.503 207.931 123.965 211.156L123.73 210.581C131.211 207.414 142.512 197.526 157.464 181.207C158.571 180.007 159.679 178.788 160.786 177.549C172.529 164.715 184.615 151.359 199.436 141.274C221.954 125.885 251.152 116.915 286.109 114.599C290.32 114.34 294.59 114.195 298.86 114.108C302.784 114.024 306.708 113.997 310.574 113.971C323.098 114.001 336.082 113.97 348.53 111.346C352.564 110.453 356.596 109.329 360.568 107.859C383.998 99.3896 404.185 80.727 414.534 57.9762Z" fill="url(#paint11_linear_3122_1339)"/>
<path d="M414.928 56.604L415.449 56.8314C405.386 79.1762 385.486 97.606 362.171 106.19C358.314 107.602 354.34 108.783 350.364 109.676C337.803 112.474 324.819 112.62 312.239 112.821C308.719 112.845 305.084 112.927 301.506 113.009C297.294 113.153 293.14 113.355 289.045 113.614C253.858 116.104 226.041 124.488 204.155 139.411C188.013 150.371 174.901 165.638 163.335 179.163C148.792 196.114 138.705 206.339 132.442 210.422L132.15 209.962C138.298 205.938 148.386 195.712 162.871 178.82C174.494 165.237 187.663 149.911 203.805 138.952C225.807 123.97 253.681 115.528 289.041 113.037C293.079 112.778 297.29 112.576 301.502 112.432C305.08 112.35 308.715 112.268 312.235 112.244C324.757 112.043 337.741 111.897 350.245 109.099C354.221 108.264 358.138 107.084 361.995 105.672C385.136 97.089 404.922 78.7754 414.928 56.604Z" fill="url(#paint12_linear_3122_1339)"/>
<path d="M415.328 55.1555L415.849 55.3828C406.129 77.2059 386.631 95.3444 363.663 103.984C359.864 105.395 355.948 106.576 352.03 107.468C339.526 110.381 326.428 110.759 313.792 111.076C310.618 111.155 307.387 111.235 304.156 111.372C300.002 111.516 295.906 111.717 291.926 112.033C256.913 114.637 229.615 122.845 208.532 137.07C192.504 147.913 179.623 163.236 168.808 176.699C157.077 191.38 146.89 203.972 140.928 209.726L140.521 209.325C146.426 203.571 156.613 190.979 168.344 176.356C179.159 162.836 192.097 147.454 208.182 136.611C229.38 122.269 256.736 114.061 291.922 111.456C295.902 111.14 299.998 110.939 304.152 110.795C307.383 110.658 310.615 110.578 313.73 110.499C326.367 110.182 339.407 109.805 351.91 106.892C355.829 106 359.687 104.819 363.429 103.409C386.281 94.8274 405.665 76.8051 415.328 55.1555Z" fill="url(#paint13_linear_3122_1339)"/>
<path d="M415.722 53.7677L416.243 53.995C406.865 75.2387 387.769 93.0859 365.09 101.724C361.406 103.134 357.605 104.314 353.745 105.264C341.128 108.35 327.915 108.844 315.164 109.335C312.395 109.431 309.626 109.546 306.856 109.68C302.76 109.881 298.722 110.14 294.858 110.455C259.442 113.235 233.41 120.972 212.844 134.79C196.7 145.576 184.281 160.781 174.273 174.238C162.206 190.421 152.205 204.917 149.405 208.976L148.941 208.69C151.741 204.574 161.742 190.078 173.809 173.895C183.874 160.437 196.351 145.174 212.551 134.272C233.175 120.397 259.323 112.659 294.796 109.878C298.661 109.563 302.699 109.305 306.795 109.104C309.602 108.969 312.391 108.854 315.16 108.758C327.911 108.267 341.066 107.774 353.626 104.687C357.429 103.796 361.229 102.558 364.913 101.206C387.419 92.5688 406.401 74.8379 415.722 53.7677Z" fill="url(#paint14_linear_3122_1339)"/>
<path d="M416.053 52.327L416.573 52.5543C407.596 73.2758 388.902 90.774 366.569 99.4672C362.943 100.877 359.2 102.114 355.455 103.063C342.724 106.324 329.339 106.992 316.417 107.657C314.109 107.788 311.802 107.92 309.494 108.051C305.398 108.252 301.476 108.567 297.727 108.881C251.411 112.717 229.617 124.176 217.208 132.456C204.224 141.143 192.305 153.632 179.675 171.782C169.788 186.103 161.4 200.069 157.878 208.288L157.357 208.06C160.936 199.783 169.325 185.818 179.211 171.496C191.841 153.231 203.817 140.684 216.916 131.938C229.325 123.659 251.234 112.141 297.665 108.304C301.414 107.99 305.394 107.675 309.432 107.474C311.778 107.343 314.105 107.211 316.413 107.08C329.278 106.416 342.604 105.748 355.278 102.487C359.023 101.538 362.766 100.359 366.335 98.9494C388.552 90.3147 407.132 72.875 416.053 52.327Z" fill="url(#paint15_linear_3122_1339)"/>
<path d="M416.45 50.9236L416.971 51.1508C408.165 71.5827 390.331 88.3825 368 97.2488C364.489 98.6578 360.804 99.8371 357.117 100.843C344.213 104.278 330.657 105.179 317.505 106.018C315.697 106.108 313.909 106.216 312.14 106.343C308.045 106.66 304.238 106.917 300.604 107.23C254.983 111.292 234.392 121.589 221.581 130.102C208.367 138.849 196.45 151.684 185.144 169.362C175.551 184.317 168.492 198.62 166.302 207.522L165.723 207.353C167.971 198.392 175.03 184.09 184.68 169.019C196.044 151.34 208.018 138.447 221.289 129.642C245.763 113.317 276.549 108.779 300.543 106.653C304.176 106.34 307.983 106.083 312.079 105.767C313.886 105.677 315.675 105.569 317.444 105.442C330.538 104.602 344.094 103.702 356.998 100.267C360.684 99.2608 364.312 98.0819 367.765 96.6733C389.982 87.8655 407.701 71.1819 416.45 50.9236Z" fill="url(#paint16_linear_3122_1339)"/>
<path d="M416.851 49.4858L417.372 49.7131C408.909 69.5655 391.477 86.074 369.434 94.9961C366.039 96.4043 362.469 97.5828 358.84 98.5886C345.65 102.314 331.691 103.39 318.252 104.463L314.791 104.717C310.638 105.034 306.946 105.348 303.486 105.66C258.27 109.892 238.942 119.2 225.958 127.772C212.629 136.577 200.772 149.7 190.617 166.909C181.488 182.322 175.701 196.905 174.729 206.78L174.21 206.726C175.18 196.735 180.967 182.095 190.096 166.624C200.308 149.357 212.28 136.117 225.609 127.312C248.819 111.976 277.99 107.449 303.482 105.083C306.885 104.771 310.576 104.457 314.787 104.14L318.19 103.886C331.629 102.814 345.53 101.738 358.721 98.07C362.292 97.0646 365.804 95.8288 369.258 94.4779C391.127 85.6147 408.445 69.2224 416.851 49.4858Z" fill="url(#paint17_linear_3122_1339)"/>
<path d="M417.236 48.0451L417.757 48.2724C409.636 67.6031 392.549 83.8207 370.91 92.74C367.573 94.1478 364.061 95.3837 360.547 96.3887C346.955 100.406 332.536 101.716 318.579 102.965L317.425 103.03C314.195 103.341 310.331 103.714 306.409 104.086C281.61 106.506 253.243 110.393 230.319 125.438C216.99 134.185 205.135 147.655 196.074 164.453C187.638 180.034 182.952 195.187 183.199 206.092L182.622 206.096C182.374 195.133 187.06 179.865 195.552 164.168C204.671 147.312 216.583 133.784 229.97 124.979C253.066 109.817 281.491 105.93 306.348 103.51C310.27 103.137 314.134 102.764 317.421 102.453L318.575 102.388C332.475 101.139 346.836 99.8292 360.371 95.8705C363.884 94.8078 367.338 93.63 370.676 92.2222C392.2 83.3614 409.172 67.26 417.236 48.0451Z" fill="url(#paint18_linear_3122_1339)"/>
<path d="M417.629 46.6747L418.15 46.902C410.372 65.6532 393.686 81.5796 372.337 90.5546C369.114 91.9039 365.718 93.139 362.262 94.2013C349.131 98.215 335.926 99.8054 320.125 101.413L316.665 101.783C314.204 102.031 311.743 102.278 309.283 102.526C283.389 105.184 256.348 109.004 234.688 123.117C217.623 134.256 207.23 150.428 201.538 162.009C193.796 177.701 190.153 193.539 191.619 205.417L191.042 205.479C189.575 193.485 193.218 177.532 201.016 161.724C206.766 150.085 217.217 133.855 234.338 122.658C256.114 108.428 283.27 104.665 309.221 101.949C311.682 101.702 314.142 101.454 316.603 101.207L320.063 100.837C335.865 99.2287 349.012 97.6964 362.085 93.6831C365.483 92.6212 368.88 91.3861 372.102 90.0368C393.336 81.0625 409.908 65.3101 417.629 46.6747Z" fill="url(#paint19_linear_3122_1339)"/>
<path d="M417.972 45.2187L418.551 45.4456C411.115 63.6174 394.831 79.2525 373.828 88.2829C370.663 89.6318 367.325 90.9242 363.927 91.9861C350.395 96.3488 336.153 98.2348 322.775 99.7686C319.507 100.137 316.239 100.486 312.971 100.816L312.164 100.937C289.443 103.4 261.071 106.537 239.065 120.826C225.619 129.459 214.228 143.214 207.01 159.537C199.848 175.572 197.36 191.575 200.046 204.657L199.469 204.776C196.783 191.578 199.27 175.46 206.431 159.31C213.765 142.928 225.212 129.057 238.715 120.309C260.893 105.961 289.266 102.825 312.102 100.361L312.91 100.24C316.178 99.9098 319.445 99.5605 322.713 99.192C336.092 97.6581 350.218 95.7729 363.75 91.4102C367.148 90.3483 370.429 89.114 373.594 87.7651C394.424 78.7936 410.651 63.2743 417.972 45.2187Z" fill="url(#paint20_linear_3122_1339)"/>
<path d="M418.364 43.8323L418.885 44.0596C411.849 61.6516 395.91 76.9957 375.254 86.0815C372.204 87.4296 368.923 88.6639 365.641 89.7827C352.225 94.2601 338.389 96.4318 325.416 98.0784C321.668 98.5656 317.919 98.995 315.036 99.3032L313.768 99.485C289.317 102.306 264.003 105.249 243.375 118.489C229.929 127.122 218.884 140.875 212.416 157.078C206.004 173.165 204.617 189.853 208.464 203.966L207.888 204.143C204.04 189.857 205.426 173.054 211.895 156.85C218.42 140.532 229.465 126.721 243.082 117.972C263.825 104.673 289.14 101.73 313.706 98.9083L314.975 98.7843C317.858 98.4184 321.606 97.9889 325.354 97.5017C338.27 95.8555 352.106 93.7415 365.464 89.2068C368.746 88.1457 371.969 86.8541 375.019 85.506C395.56 76.4787 411.327 61.3089 418.364 43.8323Z" fill="url(#paint21_linear_3122_1339)"/>
<path d="M418.757 42.3838L419.278 42.6111C412.471 59.9129 397.335 74.5591 376.68 83.818C357.694 92.373 336.419 95.4611 317.967 97.722C316.43 97.9248 314.911 98.1083 313.412 98.2724C290.577 101.025 267.05 103.84 247.743 116.148C234.24 124.781 223.599 138.416 217.88 154.614C212.161 170.754 211.818 188.069 216.884 203.271L216.366 203.447C211.241 188.131 211.584 170.7 217.359 154.386C223.135 138.13 233.833 124.38 247.451 115.631C266.816 103.264 290.458 100.449 313.293 97.6961C314.83 97.5317 316.349 97.3483 317.848 97.1457C336.3 94.9425 357.517 91.7971 376.445 83.3002C396.928 74.1001 411.949 59.5702 418.757 42.3838Z" fill="url(#paint22_linear_3122_1339)"/>
</g>
<defs>
<linearGradient id="paint0_linear_3122_1339" x1="464.326" y1="48.7159" x2="-119.663" y2="199.195" gradientUnits="userSpaceOnUse">
<stop stop-color="#C980FE"/>
<stop offset="0.999" stop-color="#EDD3FF"/>
</linearGradient>
<linearGradient id="paint1_linear_3122_1339" x1="389.073" y1="123.996" x2="104.171" y2="264.165" gradientUnits="userSpaceOnUse">
<stop stop-color="#DFBEF7"/>
<stop offset="0.739342" stop-color="#8545B3"/>
</linearGradient>
<linearGradient id="paint2_linear_3122_1339" x1="389.952" y1="122.609" x2="108.892" y2="257.942" gradientUnits="userSpaceOnUse">
<stop stop-color="#DFBEF7"/>
<stop offset="0.739342" stop-color="#8545B3"/>
</linearGradient>
<linearGradient id="paint3_linear_3122_1339" x1="390.842" y1="121.187" x2="113.698" y2="251.619" gradientUnits="userSpaceOnUse">
<stop stop-color="#DFBEF7"/>
<stop offset="0.739342" stop-color="#8545B3"/>
</linearGradient>
<linearGradient id="paint4_linear_3122_1339" x1="391.664" y1="119.842" x2="118.45" y2="245.312" gradientUnits="userSpaceOnUse">
<stop stop-color="#DFBEF7"/>
<stop offset="0.739342" stop-color="#8545B3"/>
</linearGradient>
<linearGradient id="paint5_linear_3122_1339" x1="392.542" y1="118.553" x2="123.364" y2="239.138" gradientUnits="userSpaceOnUse">
<stop stop-color="#DFBEF7"/>
<stop offset="0.739342" stop-color="#8545B3"/>
</linearGradient>
<linearGradient id="paint6_linear_3122_1339" x1="393.434" y1="117.264" x2="128.355" y2="232.878" gradientUnits="userSpaceOnUse">
<stop stop-color="#DFBEF7"/>
<stop offset="0.739342" stop-color="#8545B3"/>
</linearGradient>
<linearGradient id="paint7_linear_3122_1339" x1="394.306" y1="116.073" x2="133.368" y2="226.731" gradientUnits="userSpaceOnUse">
<stop stop-color="#DFBEF7"/>
<stop offset="0.739342" stop-color="#8545B3"/>
</linearGradient>
<linearGradient id="paint8_linear_3122_1339" x1="395.189" y1="114.89" x2="138.497" y2="220.538" gradientUnits="userSpaceOnUse">
<stop stop-color="#DFBEF7"/>
<stop offset="0.739342" stop-color="#8545B3"/>
</linearGradient>
<linearGradient id="paint9_linear_3122_1339" x1="396.065" y1="113.776" x2="143.72" y2="214.556" gradientUnits="userSpaceOnUse">
<stop stop-color="#DFBEF7"/>
<stop offset="0.739342" stop-color="#8545B3"/>
</linearGradient>
<linearGradient id="paint10_linear_3122_1339" x1="396.889" y1="112.601" x2="149.097" y2="208.498" gradientUnits="userSpaceOnUse">
<stop stop-color="#DFBEF7"/>
<stop offset="0.739342" stop-color="#8545B3"/>
</linearGradient>
<linearGradient id="paint11_linear_3122_1339" x1="397.768" y1="111.435" x2="154.619" y2="202.595" gradientUnits="userSpaceOnUse">
<stop stop-color="#DFBEF7"/>
<stop offset="0.739342" stop-color="#8545B3"/>
</linearGradient>
<linearGradient id="paint12_linear_3122_1339" x1="398.648" y1="110.303" x2="160.376" y2="196.833" gradientUnits="userSpaceOnUse">
<stop stop-color="#DFBEF7"/>
<stop offset="0.739342" stop-color="#8545B3"/>
</linearGradient>
<linearGradient id="paint13_linear_3122_1339" x1="399.531" y1="109.137" x2="166.208" y2="191.106" gradientUnits="userSpaceOnUse">
<stop stop-color="#DFBEF7"/>
<stop offset="0.739342" stop-color="#8545B3"/>
</linearGradient>
<linearGradient id="paint14_linear_3122_1339" x1="400.411" y1="107.99" x2="172.258" y2="185.511" gradientUnits="userSpaceOnUse">
<stop stop-color="#DFBEF7"/>
<stop offset="0.739342" stop-color="#8545B3"/>
</linearGradient>
<linearGradient id="paint15_linear_3122_1339" x1="401.231" y1="106.831" x2="178.399" y2="179.928" gradientUnits="userSpaceOnUse">
<stop stop-color="#DFBEF7"/>
<stop offset="0.739342" stop-color="#8545B3"/>
</linearGradient>
<linearGradient id="paint16_linear_3122_1339" x1="402.111" y1="105.668" x2="184.69" y2="174.545" gradientUnits="userSpaceOnUse">
<stop stop-color="#DFBEF7"/>
<stop offset="0.739342" stop-color="#8545B3"/>
</linearGradient>
<linearGradient id="paint17_linear_3122_1339" x1="403.002" y1="104.492" x2="191.194" y2="169.177" gradientUnits="userSpaceOnUse">
<stop stop-color="#DFBEF7"/>
<stop offset="0.739342" stop-color="#8545B3"/>
</linearGradient>
<linearGradient id="paint18_linear_3122_1339" x1="403.873" y1="103.333" x2="197.755" y2="163.948" gradientUnits="userSpaceOnUse">
<stop stop-color="#DFBEF7"/>
<stop offset="0.739342" stop-color="#8545B3"/>
</linearGradient>
<linearGradient id="paint19_linear_3122_1339" x1="404.735" y1="102.244" x2="204.232" y2="159.03" gradientUnits="userSpaceOnUse">
<stop stop-color="#DFBEF7"/>
<stop offset="0.739342" stop-color="#8545B3"/>
</linearGradient>
<linearGradient id="paint20_linear_3122_1339" x1="405.58" y1="101.07" x2="210.487" y2="154.324" gradientUnits="userSpaceOnUse">
<stop stop-color="#DFBEF7"/>
<stop offset="0.739342" stop-color="#8545B3"/>
</linearGradient>
<linearGradient id="paint21_linear_3122_1339" x1="406.341" y1="99.9663" x2="216.547" y2="149.913" gradientUnits="userSpaceOnUse">
<stop stop-color="#DFBEF7"/>
<stop offset="0.739342" stop-color="#8545B3"/>
</linearGradient>
<linearGradient id="paint22_linear_3122_1339" x1="407.137" y1="98.8" x2="222.418" y2="145.707" gradientUnits="userSpaceOnUse">
<stop stop-color="#DFBEF7"/>
<stop offset="0.739342" stop-color="#8545B3"/>
</linearGradient>
<clipPath id="clip0_3122_1339">
<rect width="349" height="178" fill="white"/>
</clipPath>
</defs>
</svg>
