<svg width="35" height="35" viewBox="0 0 35 35" fill="none" xmlns="http://www.w3.org/2000/svg">
<g id="fi_14719022" clip-path="url(#clip0_328_20705)">
<g id="Group">
<path id="Vector" d="M32.6606 30.7119C32.6606 31.9684 33.6562 32.9966 34.9 33.0491V34.9028H4.29105C1.98016 34.9028 0.1 33.0227 0.1 30.7118C0.1 28.401 1.98016 26.5209 4.29105 26.5209H5.04506C6.33513 26.5209 7.38444 25.4715 7.38444 24.1815C7.38444 22.9251 6.38892 21.8969 5.14506 21.8443V19.9906H26.6744C28.9853 19.9906 30.8654 21.8708 30.8654 24.1816C30.8654 24.9826 30.6393 25.7315 30.2478 26.3686L30.1542 26.5209H30.333H34.9V28.3746C33.6562 28.4272 32.6606 29.4555 32.6606 30.7119ZM8.7042 21.8422H8.52542L8.61899 21.9946C9.01028 22.6316 9.23611 23.3806 9.23611 24.1815C9.23611 24.9825 9.01021 25.7315 8.61899 26.3685L8.52544 26.5209H8.7042H26.6743C27.9644 26.5209 29.0137 25.4715 29.0137 24.1815C29.0137 22.8916 27.9644 21.8422 26.6743 21.8422H8.7042ZM31.3409 33.0512H31.5196L31.4261 32.8989C31.0348 32.2619 30.8089 31.5128 30.8089 30.7119C30.8089 29.911 31.0348 29.162 31.426 28.5249L31.5196 28.3726H31.3408H26.6743H4.29105C3.00098 28.3726 1.95167 29.422 1.95167 30.7119C1.95167 32.0019 3.00098 33.0512 4.29105 33.0512H31.3409Z" fill="#F6821F" stroke="white" stroke-width="0.2"/>
<path id="Vector_2" d="M26.094 7.31526L26.0339 7.34142V7.40694V15.8953C23.2497 16.7303 20.4129 17.2381 17.5001 17.2381C14.587 17.2383 11.7505 16.7303 8.96614 15.8953V7.40694V7.34142L8.90606 7.31526L4.92884 5.58332L17.5 0.10907L30.0712 5.58332L26.094 7.31526ZM24.1088 14.5208L24.1831 14.501V14.4242V8.29992V8.14731L24.0431 8.20824L17.5 11.0575L10.9568 8.20824L10.8169 8.14731V8.29992V14.4242V14.501L10.8911 14.5208C15.2285 15.6748 19.7716 15.6748 24.1088 14.5208ZM17.5399 2.14585L17.5 2.12847L17.4601 2.14585L9.77682 5.49164L9.56627 5.58332L9.77682 5.675L17.4601 9.02072L17.5 9.0381L17.5399 9.02072L25.2232 5.675L25.4337 5.58332L25.2232 5.49164L17.5399 2.14585Z" fill="#F6821F" stroke="white" stroke-width="0.2"/>
</g>
</g>
<defs>
<clipPath id="clip0_328_20705">
<rect width="35" height="35" fill="white"/>
</clipPath>
</defs>
</svg>
