<svg width="35" height="35" viewBox="0 0 35 35" fill="none" xmlns="http://www.w3.org/2000/svg">
<g id="fi_4796998" clip-path="url(#clip0_328_20712)">
<g id="Group">
<path id="Vector" d="M20.4307 6.82222L20.3416 6.91811L20.4575 6.97886C22.4986 8.04837 23.8941 10.1875 23.8941 12.6465V13.3301C23.8941 13.8411 23.4798 14.2555 22.9688 14.2555H12.0312C11.5202 14.2555 11.1059 13.8411 11.1059 13.3301V12.6465C11.1059 10.1875 12.5014 8.04837 14.5425 6.97886L14.6584 6.91811L14.5693 6.82222C13.9053 6.10748 13.4984 5.15138 13.4984 4.10156C13.4984 1.89519 15.2936 0.1 17.5 0.1C19.7064 0.1 21.5016 1.89519 21.5016 4.10156C21.5016 5.15138 21.0947 6.10748 20.4307 6.82222ZM21.9304 12.4047H22.0383L22.0301 12.2971C21.851 9.95439 19.8878 8.10312 17.5 8.10312C15.1122 8.10312 13.149 9.95439 12.9699 12.2971L12.9617 12.4047H13.0696H21.9304ZM19.6508 4.10156C19.6508 2.91553 18.686 1.95078 17.5 1.95078C16.314 1.95078 15.3492 2.91553 15.3492 4.10156C15.3492 5.28759 16.314 6.25234 17.5 6.25234C18.686 6.25234 19.6508 5.28759 19.6508 4.10156Z" fill="#F6821F" stroke="white" stroke-width="0.2"/>
<path id="Vector_2" d="M28.7962 17.4827L28.9477 17.5737V17.397V10.7285C28.9477 8.71061 30.5895 7.06875 32.6074 7.06875C33.8715 7.06875 34.9 8.09729 34.9 9.36133V19.8197C34.9 22.5842 33.6487 25.1425 31.4666 26.8397L30.5017 27.5903C29.3871 28.4571 28.7477 29.7647 28.7477 31.1766V33.9707C28.7477 34.4818 28.3333 34.8961 27.8223 34.8961H19.6191C19.1081 34.8961 18.6938 34.4818 18.6938 33.9707V24.8234C18.6938 22.5465 19.9189 20.4245 21.8908 19.2859L25.0766 17.4467L25.0266 17.3601L25.0766 17.4467C26.2687 16.7584 27.6916 16.8191 28.7962 17.4827ZM26.7969 33.0453H26.8969V32.9453V31.1766C26.8969 29.189 27.7965 27.3497 29.3654 26.1294L30.3303 25.3789C32.058 24.0351 33.0492 22.0085 33.0492 19.8197V9.36133C33.0492 9.11763 32.8511 8.91953 32.6074 8.91953C31.6099 8.91953 30.7984 9.73095 30.7984 10.7285V19.298C30.7984 20.3577 30.2282 21.3455 29.3104 21.8754L26.2342 23.6514L26.2842 23.738L26.2342 23.6514C25.7916 23.9069 25.2257 23.7554 24.9701 23.3127L24.8835 23.3627L24.9701 23.3127C24.7145 22.8701 24.8661 22.3041 25.3088 22.0486L25.2588 21.962L25.3088 22.0486L28.3114 20.315L28.3114 20.315C28.4495 20.2353 28.4998 20.1122 28.5173 20.0467C28.5348 19.9814 28.5528 19.8497 28.4731 19.7116L28.3865 19.7616L28.4731 19.7116C28.2316 19.2932 27.8411 18.9937 27.3746 18.8687L27.3487 18.9653L27.3746 18.8687C26.9082 18.7437 26.4203 18.8079 26.002 19.0494L26.052 19.136L26.002 19.0494L22.8162 20.8887L22.8662 20.9753L22.8162 20.8887C21.4149 21.6978 20.5445 23.2053 20.5445 24.8234V32.9453V33.0453H20.6445H26.7969Z" fill="#F6821F" stroke="white" stroke-width="0.2"/>
<path id="Vector_3" d="M6.05234 17.3942V17.5709L6.20383 17.48C6.49391 17.3058 6.81027 17.1711 7.1464 17.081C8.0908 16.8279 9.07672 16.9578 9.92349 17.4467L13.1092 19.2859C15.0811 20.4244 16.3062 22.5465 16.3062 24.8234V33.9707C16.3062 34.4818 15.8919 34.8961 15.3809 34.8961H7.17773C6.66667 34.8961 6.25234 34.4818 6.25234 33.9707V31.1766C6.25234 29.7647 5.61288 28.4572 4.49833 27.5903L3.53344 26.8398L3.47204 26.9187L3.53344 26.8398C1.35129 25.1426 0.1 22.5842 0.1 19.8197V9.36133C0.1 8.09729 1.12854 7.06875 2.39258 7.06875C4.41048 7.06875 6.05234 8.71061 6.05234 10.7285V17.3942ZM8.10312 32.9453V33.0453H8.20312H14.3555H14.3555H14.4555V32.9453V24.8235C14.4555 23.2054 13.5852 21.698 12.1839 20.8888L8.99818 19.0496C8.57988 18.8081 8.09198 18.7438 7.62545 18.8688C7.15884 18.9938 6.76847 19.2934 6.52702 19.7117C6.44729 19.8497 6.46535 19.9815 6.48286 20.0469C6.50036 20.1123 6.55059 20.2354 6.68869 20.3151L9.69121 22.0486C10.1338 22.3041 10.2854 22.8701 10.0299 23.3127C9.77436 23.7553 9.20839 23.907 8.76584 23.6514L8.76582 23.6514L5.68965 21.8754C4.7719 21.3455 4.20156 20.3577 4.20156 19.298V10.7285C4.20156 9.73095 3.39014 8.91953 2.39258 8.91953C2.14888 8.91953 1.95078 9.11763 1.95078 9.36133V19.8197C1.95078 22.0085 2.94195 24.0351 4.66969 25.3789L4.73108 25.3L4.66969 25.3789L5.63458 26.1294C7.20355 27.3497 8.10312 29.189 8.10312 31.1766V32.9453Z" fill="#F6821F" stroke="white" stroke-width="0.2"/>
</g>
</g>
<defs>
<clipPath id="clip0_328_20712">
<rect width="35" height="35" fill="white"/>
</clipPath>
</defs>
</svg>
