<svg width="35" height="35" viewBox="0 0 35 35" fill="none" xmlns="http://www.w3.org/2000/svg">
<g id="fi_9316720">
<g id="Layer_10">
<path id="Vector" d="M9.50359 13.7109C8.95999 13.7109 8.51921 14.1517 8.51921 14.6953C8.51921 15.2389 8.95999 15.6797 9.50359 15.6797H20.0583C20.6019 15.6797 21.0426 15.2389 21.0426 14.6953C21.0426 14.1517 20.6019 13.7109 20.0583 13.7109H9.50359Z" fill="#F6821F"/>
<path id="Vector_2" d="M14.2494 19.2969H9.50359C8.95999 19.2969 8.51921 19.7377 8.51921 20.2813C8.51921 20.8248 8.95999 21.2656 9.50359 21.2656H14.2494C14.793 21.2656 15.2337 20.8248 15.2337 20.2813C15.2337 19.7377 14.793 19.2969 14.2494 19.2969Z" fill="#F6821F"/>
<path id="Vector_3" d="M14.1039 31.8281H6.61171C5.00062 31.8281 3.6914 30.5134 3.6914 28.8969V8.95781C3.6914 7.34125 5.00062 6.02656 6.61171 6.02656H8.645V6.27375C8.645 7.70984 9.81312 8.87688 11.2492 8.87688H20.6555C22.0916 8.87688 23.2597 7.70984 23.2597 6.27375V6.02656H25.2831C26.9205 6.02656 28.2023 7.31391 28.2023 8.95781V14.5687C28.2023 15.1123 28.6431 15.5531 29.1867 15.5531C29.7303 15.5531 30.1711 15.1123 30.1711 14.5687V8.95781C30.1711 6.25625 27.9781 4.05781 25.282 4.05781H23.2586V3.80625C23.2586 2.37016 22.0905 1.20312 20.6544 1.20312H11.2481C9.81203 1.20312 8.6439 2.37016 8.6439 3.80625V4.05781H6.61171C3.91562 4.05781 1.72156 6.25625 1.72156 8.95781V28.8969C1.72156 31.5984 3.91562 33.7969 6.61171 33.7969H14.1039C14.6475 33.7969 15.0883 33.3561 15.0883 32.8125C15.0883 32.2689 14.6475 31.8281 14.1039 31.8281ZM10.6148 3.80625C10.6148 3.45625 10.8992 3.17188 11.2492 3.17188H20.6555C21.0055 3.17188 21.2898 3.45625 21.2898 3.80625V6.27266C21.2898 6.62266 21.0055 6.90703 20.6555 6.90703H11.2492C10.8992 6.90703 10.6148 6.62266 10.6148 6.27266V3.80625Z" fill="#F6821F"/>
<path id="Vector_4" d="M32.2328 18.9884C30.8853 17.6398 28.5326 17.6387 27.1841 18.9884L18.457 27.7154C18.1759 27.9965 17.9922 28.3531 17.9255 28.7458L17.4464 31.5775C17.3447 32.1845 17.5448 32.8079 17.9801 33.2422C18.34 33.602 18.8267 33.7989 19.3266 33.7989C19.4326 33.7989 19.5376 33.7901 19.6426 33.7726L22.4733 33.2947C22.8659 33.2279 23.2225 33.0442 23.5036 32.7631L32.2306 24.0361C33.623 22.6448 33.623 20.3808 32.2328 18.9884ZM22.1462 31.3544L19.3889 31.9045L19.8505 29.1078L26.1056 22.8526L28.3708 25.1178L22.1462 31.3544ZM30.8394 22.6437L29.7609 23.7244L27.4969 21.4603L28.5764 20.3808C28.8783 20.0789 29.2808 19.9115 29.7073 19.9115C30.1361 19.9115 30.5375 20.0778 30.8394 20.3808C31.4639 21.0053 31.4639 22.0192 30.8394 22.6437Z" fill="#F6821F"/>
</g>
</g>
</svg>
