<svg width="24" height="24" viewBox="0 0 24 24" fill="none" xmlns="http://www.w3.org/2000/svg">
<path fill-rule="evenodd" clip-rule="evenodd" d="M6.15973 3.75C5.7337 3.75 5.28424 3.92417 4.8154 4.38493L4.8091 4.39112L4.80266 4.39716C4.4 4.77465 4.12483 5.183 3.94738 5.62522C3.77301 6.07488 3.67969 6.57126 3.67969 7.09002C3.67969 7.89966 3.87093 8.77968 4.2701 9.73698C4.68519 10.6983 5.24574 11.6697 5.95774 12.661C6.67249 13.646 7.48603 14.5957 8.39005 15.5097C9.30181 16.4115 10.2522 17.2163 11.2616 17.954C12.2503 18.6739 13.2304 19.234 14.212 19.6493C15.1799 20.0588 16.0601 20.25 16.8597 20.25C17.4014 20.25 17.8898 20.1557 18.3258 19.97L18.3334 19.9667L18.3412 19.9636C18.7736 19.7906 19.1706 19.5121 19.5416 19.0989C19.744 18.8732 19.8988 18.6246 20.0389 18.3446C20.1155 18.1914 20.161 18.0298 20.1797 17.8705V17.7C20.1797 17.5646 20.1554 17.4413 20.0972 17.2886C20.0628 17.2151 19.9972 17.1302 19.8614 17.0357L19.8563 17.0321L16.8819 14.9261C16.6905 14.7959 16.5318 14.7086 16.4011 14.6563C16.264 14.6015 16.18 14.59 16.1297 14.59C16.0515 14.59 15.9868 14.6044 15.8845 14.6677L15.8494 14.6894L15.8121 14.7071C15.7164 14.7527 15.5779 14.8525 15.37 15.0603L15.3622 15.0681L14.6753 15.7351C14.4314 15.9766 14.1208 16.1 13.7797 16.1C13.637 16.1 13.4671 16.0846 13.283 16.0112C13.2212 15.9889 13.1714 15.9655 13.1434 15.9521L13.1087 15.9355C13.108 15.9352 13.1073 15.9349 13.1068 15.9346L13.073 15.9211L13.0367 15.9017C12.6734 15.7079 12.2382 15.4021 11.7436 14.9812C11.2555 14.5657 10.7718 14.1125 10.2748 13.6258L10.2692 13.6203L10.2638 13.6147C9.78241 13.1231 9.34261 12.6424 8.92453 12.163L8.91847 12.1561C8.50957 11.6756 8.18695 11.246 7.98793 10.873L7.96861 10.8367L7.95331 10.7986C7.94209 10.7705 7.92979 10.7374 7.92157 10.7152C7.91947 10.7097 7.91767 10.7048 7.91623 10.7009C7.90651 10.675 7.89865 10.6549 7.89031 10.6354L7.88353 10.6195L7.87741 10.6033C7.79923 10.3948 7.79953 10.2211 7.79965 10.1396C7.79965 10.1362 7.79971 10.133 7.79971 10.13C7.79971 9.831 7.89277 9.50892 8.15479 9.24426L8.83945 8.5398C9.02695 8.34312 9.15097 8.18364 9.22855 8.04792L9.23509 8.03646L9.24199 8.02524C9.30355 7.92582 9.31969 7.85142 9.31969 7.78002C9.31969 7.74618 9.30679 7.65954 9.24847 7.52106L9.24325 7.50858C9.19441 7.38648 9.11197 7.24122 8.96611 7.03134L6.87397 4.08832C6.79999 3.98197 6.69907 3.90019 6.56611 3.8366C6.44791 3.78007 6.31027 3.75 6.15973 3.75ZM21.5662 16.95H21.6897V17.7C21.6897 18.1277 21.5963 18.5837 21.3805 19.0154C21.2006 19.3752 20.9756 19.7465 20.6581 20.1007C20.1511 20.6653 19.5702 21.0861 18.9059 21.3533C18.2641 21.6253 17.5751 21.75 16.8597 21.75C15.8192 21.75 14.7395 21.5012 13.6275 21.0307C12.5291 20.566 11.4494 19.9463 10.3782 19.1663L10.3772 19.1656C9.30787 18.3841 8.29933 17.53 7.33219 16.5731L7.32649 16.5675C6.37207 15.6028 5.50693 14.5939 4.74264 13.5404L4.7406 13.5376C3.97411 12.4708 3.35556 11.404 2.89102 10.3271L2.88753 10.319C2.42784 9.21786 2.17969 8.13918 2.17969 7.09002C2.17969 6.39 2.30591 5.70761 2.55069 5.07817L2.55331 5.07145C2.8149 4.41748 3.21732 3.82895 3.77035 3.30886C4.46013 2.63348 5.26843 2.25 6.15973 2.25C6.50911 2.25 6.87151 2.31994 7.21333 2.4834C7.53931 2.6393 7.85725 2.8765 8.10295 3.22825L10.1954 6.17166C10.3669 6.41826 10.5227 6.67032 10.6335 6.94512C10.7341 7.18548 10.8197 7.47642 10.8197 7.78002C10.8197 8.14416 10.7183 8.48592 10.5244 8.80332C10.3631 9.08268 10.1504 9.33882 9.92221 9.57786L9.91759 9.58272L9.32683 10.1905C9.32881 10.1959 9.33055 10.2006 9.33211 10.2048C9.45829 10.4295 9.68971 10.7476 10.0579 11.1805C10.4573 11.6381 10.8748 12.0944 11.3301 12.5597C11.8111 13.0307 12.2657 13.4558 12.7158 13.8388C13.1451 14.2042 13.4809 14.4349 13.7165 14.5641C13.7192 14.5653 13.7218 14.5664 13.7243 14.5676L14.3134 13.9956C14.5546 13.7548 14.8227 13.5253 15.1294 13.3714C15.4368 13.1882 15.7616 13.09 16.1297 13.09C16.4194 13.09 16.6954 13.1585 16.9582 13.2637C17.2264 13.3709 17.4859 13.5224 17.7322 13.6903L17.7431 13.6978L20.718 15.8044C20.7189 15.805 20.7198 15.8056 20.7207 15.8062C21.0373 16.027 21.3109 16.3178 21.4775 16.7009L21.4831 16.7137L21.4881 16.7267C21.5169 16.8002 21.5431 16.8745 21.5662 16.95Z" fill="white"/>
</svg>
