<svg width="32" height="32" viewBox="0 0 32 32" fill="none" xmlns="http://www.w3.org/2000/svg">
<path d="M4.54688 30.3333C4.00021 30.3333 3.54688 29.88 3.54688 29.3333C3.54688 23.64 9.13353 19 16.0003 19C17.3469 19 18.6668 19.1733 19.9468 19.5333C20.4801 19.68 20.7869 20.2267 20.6403 20.76C20.4936 21.2933 19.9468 21.6 19.4136 21.4533C18.3203 21.1467 17.1736 21 16.0003 21C10.2402 21 5.54688 24.7333 5.54688 29.3333C5.54688 29.88 5.09354 30.3333 4.54688 30.3333Z" fill="#424242"/>
<path d="M15.9997 16.9974C11.773 16.9974 8.33301 13.5574 8.33301 9.33073C8.33301 5.10406 11.773 1.66406 15.9997 1.66406C20.2263 1.66406 23.6663 5.10406 23.6663 9.33073C23.6663 13.5574 20.2263 16.9974 15.9997 16.9974ZM15.9997 3.66406C12.8797 3.66406 10.333 6.21073 10.333 9.33073C10.333 12.4507 12.8797 14.9974 15.9997 14.9974C19.1197 14.9974 21.6663 12.4507 21.6663 9.33073C21.6663 6.21073 19.1197 3.66406 15.9997 3.66406Z" fill="#424242"/>
<path d="M23.9993 30.3307C21.786 30.3307 19.706 29.1574 18.586 27.2507C17.986 26.2907 17.666 25.1574 17.666 23.9974C17.666 22.0507 18.5327 20.2507 20.0393 19.0507C21.1593 18.1574 22.5727 17.6641 23.9993 17.6641C27.4927 17.6641 30.3327 20.5041 30.3327 23.9974C30.3327 25.1574 30.0127 26.2907 29.4127 27.2641C29.0793 27.8241 28.6527 28.3307 28.146 28.7574C27.0394 29.7707 25.5593 30.3307 23.9993 30.3307ZM23.9993 19.6641C23.0127 19.6641 22.0793 19.9974 21.2927 20.6241C20.266 21.4374 19.666 22.6774 19.666 23.9974C19.666 24.7841 19.8793 25.5574 20.2927 26.2241C21.066 27.5307 22.4927 28.3307 23.9993 28.3307C25.0527 28.3307 26.066 27.9441 26.8393 27.2507C27.186 26.9574 27.4794 26.6107 27.6927 26.2374C28.1193 25.5574 28.3327 24.7841 28.3327 23.9974C28.3327 21.6107 26.386 19.6641 23.9993 19.6641Z" fill="#424242"/>
<path d="M23.2395 26.3195C22.9862 26.3195 22.7329 26.2262 22.5329 26.0262L21.2129 24.7062C20.8262 24.3195 20.8262 23.6794 21.2129 23.2927C21.5995 22.906 22.2395 22.906 22.6262 23.2927L23.2662 23.9328L25.3995 21.9594C25.7995 21.586 26.4395 21.6128 26.8129 22.0128C27.1862 22.4128 27.1595 23.0528 26.7595 23.4262L23.9195 26.0527C23.7195 26.226 23.4795 26.3195 23.2395 26.3195Z" fill="#424242"/>
</svg>
